<?xml version="1.0" encoding="utf-8"?>
<!-- Generator: Adobe Illustrator 20.1.0, SVG Export Plug-In . SVG Version: 6.00 Build 0)  -->
<svg version="1.1" id="Layer_3" xmlns="http://www.w3.org/2000/svg" xmlns:xlink="http://www.w3.org/1999/xlink" x="0px" y="0px"
	 width="32px" height="32px" viewBox="0 0 32 32" style="enable-background:new 0 0 32 32;" xml:space="preserve">
<g style="display:none;">
	<circle style="display:inline;opacity:0.37;fill:none;stroke:#F208F2;stroke-miterlimit:10;" cx="16" cy="16" r="15"/>
	<rect y="0" style="fill:none;stroke:#F208F2;stroke-miterlimit:10;" width="32" height="32"/>
	<rect x="1" y="1" style="display:inline;opacity:0.37;fill:none;stroke:#F208F2;stroke-miterlimit:10;" width="30" height="30"/>
	
		<rect x="1" y="6.068" style="display:inline;opacity:0.37;fill:none;stroke:#F208F2;stroke-miterlimit:10;" width="30" height="19.865"/>
	
		<rect x="1" y="6.068" transform="matrix(4.489901e-11 1 -1 4.489901e-11 32 -7.199752e-10)" style="display:inline;opacity:0.37;fill:none;stroke:#F208F2;stroke-miterlimit:10;" width="30" height="19.865"/>
</g>
<g>
	<path style="fill:#FFFFFF;" d="M24.428,17.487v0.951c-2.978,0.124-4.159,0.893-5.19,1.585c-0.932,0.626-1.736,1.166-4.141,1.166
		h-1.849c-1.094,0-2.034,0.662-2.448,1.604c-0.681-0.231-1.367-0.473-2.045-0.716c-3.666-1.311-5.791-2.015-6.868-1.258
		c-0.381,0.269-0.591,0.692-0.591,1.194c0,2.383,5.017,4.893,6.022,5.372c0.573,0.272,1.099,0.527,1.585,0.762
		c2.696,1.306,4.324,2.094,6.172,2.094c2.272,0,5.572-1.149,7.981-1.987c0.466-0.163,0.962-0.335,1.372-0.469v1.532h6.277v-11.83
		H24.428z M22.513,26.696c-2.168,0.755-5.445,1.896-7.438,1.896c-1.47,0-2.885-0.685-5.454-1.928
		c-0.489-0.237-1.018-0.493-1.595-0.768c-2.462-1.172-4.797-2.916-5.057-3.749c0.841-0.094,3.457,0.851,5.229,1.484
		c0.814,0.292,1.642,0.583,2.454,0.853c0.281,1.177,1.335,2.057,2.596,2.057h4.626c0.456,0,0.825-0.369,0.825-0.825
		s-0.369-0.825-0.825-0.825h-4.626c-0.565,0-1.025-0.46-1.025-1.025s0.46-1.025,1.025-1.025h1.849c2.908,0,4.002-0.735,5.061-1.446
		c0.92-0.619,1.812-1.2,4.271-1.308v5.974C23.983,26.187,23.381,26.394,22.513,26.696z M29.055,27.667h-2.977v-8.529h2.977V27.667z"
		/>
	<path style="fill:#FFFFFF;" d="M16.951,10.811c2.496,0,4.527-2.031,4.527-4.526c0-2.496-2.031-4.527-4.527-4.527
		s-4.526,2.031-4.526,4.527C12.424,8.78,14.455,10.811,16.951,10.811z M16.951,3.408c1.586,0,2.876,1.29,2.876,2.876
		c0,1.586-1.29,2.876-2.876,2.876c-1.586,0-2.876-1.29-2.876-2.876C14.075,4.698,15.365,3.408,16.951,3.408z"/>
	<path style="fill:#FFFFFF;" d="M10.452,19.14c2.496,0,4.526-2.031,4.526-4.527s-2.031-4.526-4.526-4.526
		c-2.496,0-4.527,2.031-4.527,4.526S7.956,19.14,10.452,19.14z M10.452,11.737c1.586,0,2.876,1.29,2.876,2.876
		c0,1.586-1.29,2.876-2.876,2.876c-1.586,0-2.876-1.29-2.876-2.876C7.575,13.027,8.865,11.737,10.452,11.737z"/>
</g>
</svg>
