<svg id="Layer_1" data-name="Layer 1" xmlns="http://www.w3.org/2000/svg" viewBox="0 0 55.75 58.18"><defs><style>.cls-1{fill:#a3adb2;}</style></defs><title>icon-lock</title><path class="cls-1" d="M32.14,42.33a4.33,4.33,0,1,1,5.71,0v7.06a2.86,2.86,0,0,1-5.71,0V42.33M57.16,28H12.84V58.38H57.16V28ZM24.32,22.25H45.68V11.62H24.32V22.25Zm35.39,0a3.17,3.17,0,0,1,3.17,3.17v35.5a3.17,3.17,0,0,1-3.17,3.17H10.3a3.17,3.17,0,0,1-3.17-3.17V25.42a3.17,3.17,0,0,1,3.17-3.17h8.3V9.08a3.17,3.17,0,0,1,3.17-3.17H48.22A3.17,3.17,0,0,1,51.4,9.07V22.25h8.3" transform="translate(-7.13 -5.91)"/></svg>